<?xml version="1.0" encoding="UTF-8"?>
<svg width="120px" height="139px" viewBox="0 0 120 139" version="1.1" xmlns="http://www.w3.org/2000/svg" xmlns:xlink="http://www.w3.org/1999/xlink">
    <!-- Generator: Sketch 42 (36781) - http://www.bohemiancoding.com/sketch -->
    <title>Group</title>
    <desc>Created with Sketch.</desc>
    <defs></defs>
    <g id="Page-1" stroke="none" stroke-width="1" fill="none" fill-rule="evenodd">
        <g id="Group" transform="translate(0.000000, -1.000000)" fill-rule="nonzero">
            <g transform="translate(0.000000, 20.000000)" id="Shape" fill="#3C325F">
                <path d="M32.552824,0.50087544 L65.556344,0.50087544 C65.81964,0.50087544 66.082936,0.50369144 66.344824,0.51073144 L66.381432,0.51073144 L66.422264,0.51354744 C66.658808,0.51917944 66.895352,0.52903544 67.130488,0.53889144 L67.203704,0.54311544 L67.254392,0.54593144 C68.047096,0.58817144 68.83276,0.65857144 69.60716,0.75572344 L69.639544,0.75994744 L69.711352,0.76980344 C69.925368,0.79796344 70.136568,0.82893944 70.350584,0.85991544 L70.535032,0.88948344 C70.753272,0.92327544 70.967288,0.95988344 71.182712,0.99789944 L71.230584,1.00634744 L71.2334,1.00634744 L71.295352,1.01761144 C71.491064,1.05421944 71.686776,1.09082744 71.882488,1.13165944 L72.171128,1.19079544 L72.678008,1.30202744 L72.904696,1.35412344 L73.483384,1.49773944 L73.649528,1.53997944 L74.173304,1.68218744 L74.49292,1.77229944 L74.846328,1.87930744 L75.310968,2.02433144 L75.402488,2.05249144 L75.639032,2.12993144 L75.684088,2.14541944 L76.085368,2.28340344 L76.113528,2.29325944 L76.350072,2.37633144 L76.355704,2.37773944 L76.786552,2.53684344 L76.820344,2.54951544 L77.052664,2.63821944 L77.120248,2.66497144 L77.490552,2.81140344 L77.517304,2.82125944 L77.749624,2.91700344 L77.78764,2.93389944 C78.159352,3.08596344 78.525432,3.24647544 78.890104,3.41402744 L79.115384,3.51821944 C79.333624,3.61959544 79.550456,3.72378744 79.764472,3.83220344 L79.823608,3.86036344 C80.027768,3.96314744 80.229112,4.06593144 80.430456,4.17153144 L80.450168,4.18138744 L80.668408,4.29684344 C90.803192,9.73031544 97.747448,20.4325234 97.747448,32.6821234 L97.747448,68.6565234 C97.747448,68.9324914 97.744632,69.2084594 97.737592,69.4844274 C97.729144,69.7589874 97.719288,70.0321394 97.705208,70.3066994 C97.692536,70.5798514 97.672824,70.8501874 97.651704,71.1219314 C97.631992,71.3936754 97.608056,71.6640114 97.581304,71.9329394 C97.551736,72.2018674 97.523576,72.4693874 97.486968,72.7369074 C97.453176,73.0044274 97.41516,73.2705394 97.374328,73.5352434 C97.334904,73.8013554 97.291256,74.0646514 97.241976,74.3279474 C97.195512,74.5898354 97.144824,74.8517234 97.09132,75.1122034 C97.036408,75.3726834 96.980088,75.6331634 96.919544,75.8908274 C96.860408,76.1484914 96.79564,76.4061554 96.729464,76.6610034 C96.663288,76.9172594 96.592888,77.1721074 96.522488,77.4255474 C96.449272,77.6789874 96.371832,77.9310194 96.294392,78.1816434 C96.215544,78.4322674 96.13388,78.6828914 96.0494,78.9292914 C95.96492,79.1770994 95.877624,79.4234994 95.786104,79.6684914 C95.695992,79.9148914 95.601656,80.1584754 95.505912,80.4006514 C95.410168,80.6428274 95.308792,80.8821874 95.207416,81.1229554 C95.10604,81.3623154 95.001848,81.6002674 94.892024,81.8368114 C94.785016,82.0733554 94.673784,82.3084914 94.561144,82.5408114 C94.447096,82.7745394 94.33164,83.0054514 94.21196,83.2363634 C94.093688,83.4672754 93.971192,83.6939634 93.847288,83.9206514 C93.724792,84.1473394 93.596664,84.3740274 93.467128,84.5950834 C93.337592,84.8189554 93.20524,85.0414194 93.070072,85.2638834 C92.936312,85.4835314 92.798328,85.7017714 92.657528,85.9186034 C92.519544,86.1340274 92.375928,86.3494514 92.232312,86.5620594 C92.08588,86.7746674 91.939448,86.9858674 91.788792,87.1956594 C91.639544,87.4026354 91.486072,87.6124274 91.331192,87.8165874 C91.17772,88.0221554 91.018616,88.2277234 90.859512,88.4290674 C90.701816,88.6318194 90.539896,88.8303474 90.373752,89.0288754 C90.210424,89.2274034 90.04428,89.4231154 89.87532,89.6160114 L89.873912,89.6160114 C89.704952,89.8103154 89.534584,90.0032114 89.3614,90.1918834 C89.188216,90.3833714 89.013624,90.5692274 88.834808,90.7536754 C88.6574,90.9409394 88.475768,91.1239794 88.294136,91.3056114 C88.111096,91.4886514 87.926648,91.6674674 87.740792,91.8448754 C87.553528,92.0222834 87.364856,92.1968754 87.174776,92.3700594 L87.173368,92.3700594 C86.983288,92.5418354 86.790392,92.7122034 86.596088,92.8797554 C86.400376,93.0473074 86.203256,93.2134514 86.004728,93.3781874 C85.8062,93.5429234 85.604856,93.7020274 85.402104,93.8625394 C85.199352,94.0202354 84.995192,94.1793394 84.789624,94.3314034 C84.58124,94.4876914 84.374264,94.6397554 84.161656,94.7875954 C83.951864,94.9368434 83.739256,95.0846834 83.52524,95.2282994 C83.312632,95.3733234 83.094392,95.5169394 82.878968,95.6563314 L82.87756,95.6563314 C82.65932,95.7957234 82.44108,95.9337074 82.218616,96.0688754 C81.998968,96.2026354 81.775096,96.3349874 81.551224,96.4645234 C81.325944,96.5940594 81.100664,96.7207794 80.872568,96.8460914 L80.900728,96.8460914 C80.672632,96.9699954 80.444536,97.0910834 80.213624,97.2107634 C79.981304,97.3304434 79.748984,97.4458994 79.515256,97.5599474 C79.28012,97.6725874 79.043576,97.7838194 78.807032,97.8936434 C78.56908,98.0006514 78.331128,98.1062514 78.09036,98.2090354 L78.088952,98.2090354 C77.849592,98.3118194 77.607416,98.4131954 77.36524,98.5103474 C77.120248,98.6060914 76.876664,98.7018354 76.630264,98.7919474 L76.628856,98.7919474 C76.382456,98.8848754 76.137464,98.9735794 75.888248,99.0580594 L75.88684,99.0580594 C75.639032,99.1439474 75.387,99.2256114 75.137784,99.3058674 L75.136376,99.3058674 C74.885752,99.3875314 74.632312,99.4635634 74.378872,99.5367794 C74.124024,99.6099954 73.869176,99.6832114 73.61292,99.7493874 C73.356664,99.8183794 73.097592,99.8831474 72.839928,99.9436914 C72.579448,100.005643 72.320376,100.064779 72.059896,100.121099 C71.799416,100.176011 71.53612,100.228107 71.274232,100.277387 C71.009528,100.326667 70.746232,100.371723 70.48012,100.416779 L70.478712,100.416779 C70.215416,100.459019 69.946488,100.501259 69.680376,100.535051 L69.678968,100.535051 C69.411448,100.571659 69.143928,100.605451 68.873592,100.636427 L68.872184,100.636427 C68.604664,100.665995 68.334328,100.692747 68.062584,100.716683 C67.79084,100.742027 67.519096,100.760331 67.245944,100.775819 C66.9742,100.792715 66.69964,100.806795 66.423672,100.816651 C66.149112,100.827915 65.874552,100.832139 65.597176,100.836363 L31.213816,101.230603 L8.460536,115.761163 C-0.224008,121.305867 0.012536,120.217483 0.050552,111.780747 L0.160376,86.7887474 C0.039288,86.0706674 0.020984,84.9020274 0.028024,83.2405874 L0.392696,32.5807474 C0.457464,17.6418674 10.7246,4.99802744 24.568056,1.42170744 C24.822904,1.35553144 25.07916,1.29217144 25.338232,1.23303544 L25.341048,1.23303544 C25.597304,1.17108344 25.857784,1.11476344 26.116856,1.06125944 L26.118264,1.06125944 C26.378744,1.00634744 26.640632,0.95706744 26.903928,0.90919544 C27.167224,0.86132344 27.431928,0.81767544 27.695224,0.77684344 L27.696632,0.77684344 C27.962744,0.73601144 28.228856,0.69799544 28.494968,0.66420344 L28.496376,0.66420344 C28.763896,0.62900344 29.032824,0.59802744 29.301752,0.57127544 C29.569272,0.54452344 29.841016,0.51917944 30.11276,0.49805944 C30.384504,0.47693944 30.656248,0.46004344 30.9294,0.44596344 C31.202552,0.43329144 31.477112,0.42061944 31.750264,0.41498744 C32.026232,0.40794744 32.3022,0.40372344 32.578168,0.40372344 L32.552824,0.50087544 Z"></path>
            </g>
            <path d="M47.097464,72.3997554 L43.760504,69.1331954 C43.647864,63.7687154 32.609144,50.3645554 29.497464,48.1117554 C29.034232,48.4665714 27.67692,53.7254514 24.700408,51.4895474 C24.006264,50.9812594 20.90444,54.1886834 20.90444,54.8983154 C24.392056,63.4899314 29.650936,71.0480754 33.49196,78.1584754 C34.015736,79.1454834 32.642936,78.0190834 31.79532,77.6501874 L34.91404,81.9544434 L36.098168,84.0101234 L37.394936,84.6944114 L45.464184,97.7676914 L45.075576,93.7844594 L47.759224,94.8714354 L48.066168,91.8104434 L58.257272,84.3902834 L60.03276,78.5301874 L59.989112,82.2473074 L64.15116,74.1076594 L61.63788,80.1198194 C62.07436,79.0441074 65.750648,73.6796274 66.984056,72.2899314 L87.301496,49.3958514 C90.634232,46.2855794 95.88044,39.3708914 99.68908,35.6058994 C102.212216,33.1109234 93.0222,40.2044274 94.411896,38.2247794 C95.04268,37.3264754 102.507896,30.5793394 103.283704,30.3315314 C101.501176,23.1141234 105.826552,27.3690994 105.826552,22.1271154 L105.826552,17.5468914 L108.574968,17.5468914 L108.546808,19.3350514 L111.419128,18.4339314 L110.405368,14.8012914 L112.237176,14.8012914 L112.347,11.9219314 L114.222456,13.4862194 L119.565816,2.89524344 C117.594616,3.93575544 108.780536,-0.79512456 106.133496,1.75194744 C95.038456,12.3837554 56.121336,60.2121074 47.110136,72.3772274 L47.097464,72.3997554 Z" id="Shape" fill="#B0DBF6"></path>
        </g>
    </g>
</svg>