<?xml version="1.0" encoding="UTF-8"?>
<svg width="9px" height="10px" viewBox="0 0 9 10" version="1.1" xmlns="http://www.w3.org/2000/svg" xmlns:xlink="http://www.w3.org/1999/xlink">
    <!-- Generator: Sketch 42 (36781) - http://www.bohemiancoding.com/sketch -->
    <title>logo-audiencias-full</title>
    <desc>Created with Sketch.</desc>
    <defs></defs>
    <g id="Page-1" stroke="none" stroke-width="1" fill="none" fill-rule="evenodd">
        <g id="logo-audiencias-full">
            <g id="g4356">
                <g id="g4306">
                    <path d="M2.1413636,0.11000153 C4.1526843,1.3694861 5.9941966,2.5426279 8.0055174,3.8021124 C8.1493953,3.8921919 8.2253021,3.9716966 8.2043546,4.0541771 C8.2253021,4.1366576 8.1493953,4.2161455 8.0055174,4.306225 C5.9941966,5.5657096 4.1526843,6.7388514 2.1413636,7.9983359 C1.9239826,8.1344638 1.8362903,8.188531 1.8362903,7.8953445 L1.8362903,4.0541748 L1.8362903,0.21299412 C1.8362903,-0.08019246 1.9239823,-0.02612521 2.1413636,0.11000298 L2.1413636,0.11000153 Z" id="path10" fill="#F8C300"></path>
                    <path d="M1.7891278,2.7081108 C2.5570384,2.7081108 3.1797982,3.3308661 3.1797982,4.0987813 C3.1797982,4.7242258 2.7666737,5.2533504 2.1984744,5.4281687 L1.3797745,5.4281687 C0.81157514,5.253356 0.39845066,4.7242281 0.39845066,4.0987813 C0.39845066,3.3308706 1.021206,2.7081108 1.7891322,2.7081108 L1.7891278,2.7081108 Z" id="_118245840" fill="#3D9BCA"></path>
                    <path d="M1.3798855,5.4281687 C0.81163513,5.2533893 0.39844399,4.7242781 0.39844399,4.0987813 C0.39844399,3.3669995 0.96397072,2.767039 1.6817331,2.7121986 C2.1818934,2.9727698 2.5235333,3.4959293 2.5235333,4.0987813 C2.5235333,4.1397353 2.5219033,4.1803203 2.5188133,4.2204842 L0.95363564,4.1976532 L0.98098894,4.2093712 L2.29438069,4.4878641 C2.37045469,4.5039871 2.46512459,4.5349211 2.43133279,4.6286662 C2.3108731,4.9627398 2.0797404,5.243973 1.7822328,5.4281665 L1.3798853,5.4281665 L1.3798855,5.4281687 Z" id="_118250904" fill="#47C7FF"></path>
                    <path d="M1.3797745,5.4281687 L1.1116543,5.4281687 C1.0527273,5.4281687 1.0045106,5.4679117 1.0045106,5.5164667 L1.0045106,5.7617555 C1.0045106,5.8103085 1.0527276,5.8500535 1.1116543,5.8500535 L2.469556,5.8500535 C2.528465,5.8500535 2.5767163,5.8103095 2.5767163,5.7617555 L2.5767163,5.5164667 C2.5767163,5.4679307 2.5284993,5.4281687 2.469556,5.4281687 L2.1984777,5.4281687 L1.782243,5.4281687 L1.3797778,5.4281687 L1.3797745,5.4281687 Z" id="path15" fill="#FFFFFF"></path>
                    <path d="M2.3281563,5.9750506 L1.2432523,5.9750506 L1.4548326,9.0778136 C1.4575226,9.1175066 1.4874146,9.1501906 1.5272096,9.1501906 L1.7856791,9.1501906 L2.0441998,9.1501906 C2.0839608,9.1501906 2.1138528,9.1175076 2.1165598,9.0778136 L2.3281568,5.9750506 L2.3281563,5.9750506 Z" id="path17" fill="#FFFFFF"></path>
                    <path d="M2.4344602,5.5164664 L2.4344602,5.7617552 C2.4344602,5.8103082 2.3862252,5.8500532 2.3272998,5.8500532 L2.4695471,5.8500532 C2.5284561,5.8500532 2.5767074,5.8103092 2.5767074,5.7617552 L2.5767074,5.5164664 C2.5767074,5.4679304 2.5284894,5.4281684 2.4695471,5.4281684 L2.3272998,5.4281684 C2.3862438,5.4281684 2.4344602,5.4679294 2.4344602,5.5164664 Z" id="path19" fill="#DEDEDD"></path>
                    <path d="M1.8554427,5.9750506 L1.8454527,9.0778136 C1.8453351,9.1175736 1.8128537,9.1501906 1.7730757,9.1501906 L1.7856847,9.1501906 L2.0442053,9.1501906 C2.0839663,9.1501906 2.1138583,9.1175076 2.1165653,9.0778136 L2.3281623,5.9750506 L1.8554387,5.9750506 L1.8554427,5.9750506 Z" id="path21" fill="#DEDEDD"></path>
                    <path d="M1.0592999,3.482974 C1.0386879,3.503586 1.0052489,3.503586 0.9846372,3.482974 C0.9640423,3.462362 0.9640423,3.428923 0.9846372,3.408311 C1.087477,3.3054721 1.2090962,3.2249755 1.3416261,3.170084 C1.4739717,3.115259 1.6167899,3.086242 1.7622652,3.086242 C1.7914172,3.086242 1.8150552,3.109863 1.8150552,3.139032 C1.8150552,3.168184 1.7914172,3.191805 1.7622652,3.191805 C1.6301718,3.191805 1.5009542,3.217981 1.3816384,3.26741 C1.2624569,3.31677 1.1526574,3.3895999 1.0592999,3.482974 Z M1.0936139,5.30317 L2.4846287,5.30317 C2.8661126,5.0823422 3.133022,4.6855088 3.1741773,4.2237978 L0.40405555,4.2237978 C0.44521165,4.6855088 0.71212135,5.0823422 1.0936046,5.30317 L1.0936139,5.30317 Z M0.67284001,4.0362875 C0.67911001,3.9907935 0.68822311,3.9457535 0.70009241,3.9014037 C0.72477261,3.8093237 0.76162481,3.7201184 0.80997654,3.6363438 C0.82445174,3.6111758 0.85657974,3.6025008 0.88174754,3.6169588 C0.90691534,3.6314168 0.91559034,3.6635618 0.90113194,3.6887298 C0.85772304,3.7639478 0.82445184,3.8446788 0.80195714,3.9286222 C0.79249214,3.9640112 0.78496004,3.9999562 0.77942894,4.0362869 L3.1783313,4.0362869 C3.1456316,3.2973776 2.5360915,2.7081108 1.7891272,2.7081108 C1.0421474,2.7081108 0.43260287,3.2973754 0.39991192,4.0362875 L0.67283967,4.0362875 L0.67284001,4.0362875 Z M1.1116529,5.4281687 L2.4695547,5.4281687 C2.5284987,5.4281687 2.5766983,5.4679287 2.5766983,5.5164827 L2.5766983,5.7617548 C2.5766983,5.8103078 2.5284813,5.8500528 2.4695547,5.8500528 L1.1116529,5.8500528 C1.0527429,5.8500528 1.0045093,5.8103258 1.0045093,5.7617548 L1.0045093,5.5164827 C1.0045093,5.4679127 1.0527263,5.4281687 1.1116529,5.4281687 Z M2.7389801,5.3393167 C2.7676441,5.3651067 2.7857351,5.4024457 2.7857351,5.4437878 L2.7857351,5.8344341 C2.7857351,5.9117871 2.7224551,5.9750673 2.6451018,5.9750673 L2.6046518,5.9750673 L2.2857257,9.2408074 C2.2798716,9.3006918 2.2364825,9.350187 2.1763459,9.350187 L1.7856996,9.350187 L1.3950533,9.350187 C1.3349163,9.350187 1.2915242,9.300692 1.2856736,9.2408073 L0.9667475,5.9750672 L0.9575515,5.9750672 C0.8801989,5.9750672 0.81691823,5.9117872 0.81691823,5.834434 L0.81691823,5.4437877 C0.81691823,5.4077597 0.83065373,5.3747917 0.85313153,5.3498417 C0.50407785,5.0882617 0.26801878,4.6840981 0.23155332,4.2237978 L0.09374482,4.2237978 C0.04218165,4.2237973 0,4.1815989 0,4.1300361 L0,4.1300361 C0,4.0784737 0.04218165,4.036292 0.09374448,4.036292 L0.22792177,4.036292 C0.2607559,3.202444 0.9472459,2.5362296 1.7891339,2.5362296 C2.6310007,2.5362296 3.3174884,3.202444 3.3503238,4.036292 L3.484501,4.036292 C3.536063,4.036292 3.578245,4.078474 3.578245,4.130036 L3.578245,4.130036 C3.578245,4.181598 3.536063,4.223797 3.484501,4.223797 L3.3466925,4.223797 C3.3107314,4.6779765 3.0804218,5.0775003 2.7389842,5.3393101 L2.7389801,5.3393167 Z M2.3281594,5.9750673 L1.2432387,5.9750673 L1.4548357,9.077797 C1.4575257,9.117507 1.4874347,9.150174 1.5272127,9.150174 L1.7856989,9.150174 L2.0441851,9.150174 C2.0839791,9.150174 2.1138711,9.117509 2.1165621,9.077797 L2.3281591,5.9750673 L2.3281594,5.9750673 Z" id="path23" fill="#293554"></path>
                </g>
            </g>
        </g>
    </g>
</svg>